<?xml version="1.0" encoding="utf-8"?>
<!-- Generator: Adobe Illustrator 25.0.0, SVG Export Plug-In . SVG Version: 6.00 Build 0)  -->
<svg version="1.1" id="Camada_1" xmlns="http://www.w3.org/2000/svg" xmlns:xlink="http://www.w3.org/1999/xlink" x="0px" y="0px"
	 viewBox="0 0 1270 460" style="enable-background:new 0 0 1270 460;" xml:space="preserve">
<style type="text/css">
	.st0{fill:url(#SVGID_1_);}
	.st1{fill:#45B3E7;}
	.st2{fill:#7858A1;}
	.st3{fill:#59C0CA;}
	.st4{fill:#302359;}
	.st5{fill:#201C43;}
</style>
<g>
	
		<linearGradient id="SVGID_1_" gradientUnits="userSpaceOnUse" x1="-44.4849" y1="888.9118" x2="88.9705" y2="765.0268" gradientTransform="matrix(1 0 0 -1 200.874 1045.8268)">
		<stop  offset="0" style="stop-color:#7456A0"/>
		<stop  offset="1" style="stop-color:#50A4DB"/>
	</linearGradient>
	<path class="st0" d="M228.5,79.2c1.3-3.2,3.5-8.5,5.2-11.7c2.6-4.7,6.3-17.9,11.7-19.3c8.3-2.1,10.6,3,12.5,9.6l32.5,117.4
		c29.1-12.5,59.9-20.9,91.2-9c1.9,0.7,5.4,2.3,7,3.4c5.5,2.6,11.4,7.1,15.2,11.8c-0.4,1.6-0.3,2.7-0.3,4.3c-1.3,1.8-5.1,6.1-7.4,5.8
		c-3.5-4.2-6.7-6.7-11.1-9.9c-20.3-11.4-44.5-10.1-66.3-4c-8.5,2.4-16.6,5.6-24.5,9.5l15.5,54.3l4.3,14.7c0.4,1.3,1.9,6.3,2,7.3
		c4.1,11.3,6.6,24,10.4,35.5c0.5,1.4,1.1,3.7,1.3,5.1c0.6,4.5-5.9,7.2-9.4,5.1c-2.3-1.4-2.5-3.7-3.4-6.1c-3.2-11-6.4-22-9.7-33
		c-0.1-0.3-0.1-0.6-0.2-0.9c-0.8-2.1-1.9-6-2.5-8.3l-5.1-17.5l-14.7-49.9c-39.4,23.4-65.5,47.3-96.6,80.3
		c-10.5,11.3-21,22.8-31.2,34.3c-6.8,7.6-13.7,15.5-21.2,22.2c-5,4.4-13.8,1.9-15.4-4.7c-0.8-3.4-0.4-5.6,0.9-8.7
		c2-4.7,4.2-9.2,6.3-13.8c4.2-9.3,8.5-18.6,12.8-27.8l31.8-68.8l38.2-83.3l12.4-27.5C223.3,90.5,225.9,84.2,228.5,79.2z
		 M135.1,312.1l15.6-17.4c36.1-41.6,79.8-87.1,128.6-113.5c-4.7-14.8-9-29.8-13-44.9l-12.7-45.7c-0.8-2.8-5.2-20.3-6.2-21.7
		L175,226.6l-24.8,53.3C145.3,290.3,140.2,301.8,135.1,312.1z"/>
	<path class="st1" d="M305.2,269c0.1-2.6-1.2-3.9-1.1-6c0.7,0.9,0.5,1,1.3,1.2c1.2-0.8,5.3-5.5,5.6-7.1c0.3-1.5,1.1-3,1.6-4.3
		c0.6,0.8,2.4,8.3,3.1,10.3l0.5,0.2c4.1,11.3,6.6,24,10.4,35.5c0.5,1.4,1.1,3.7,1.3,5.1c0.6,4.5-5.9,7.2-9.4,5.1
		c-2.3-1.4-2.5-3.7-3.4-6.1c-3.2-11-6.4-22-9.7-33C305.3,269.6,305.2,269.3,305.2,269z"/>
	<path class="st2" d="M228.5,79.2c1.3-3.2,3.5-8.5,5.2-11.7c2.6-4.7,6.3-17.9,11.7-19.3c8.3-2.1,10.6,3,12.5,9.6l-0.6,0.8
		c-0.6-0.1-0.6-0.1-1.2-0.3c-1.2,1-1.4,4.1-3.3,5c-0.8-0.1-1.1-0.6-1.6-1.2l-0.4,0.1c-0.2,0.9-0.2,1.1-0.2,2
		c-1.5,2.7-6.1,1.3-6.1,4.8c-5.5,5.5-6.1,6.2-12.9,9.8c-0.2-0.7-0.1-1-0.1-1.7l-0.4,0c-0.7,0.7-0.7,0.9-1.1,1.8
		C229.3,79.2,229.3,79.3,228.5,79.2z"/>
	<path class="st1" d="M385.1,181.5c-0.7-1.5-3.7-2.5-5.4-3.4l0.2-0.4c7.2-2.4,4.9-6.9,7-8.4c0.5,0.1,0.8,0.1,1.3,0.2l0.5,0
		c5.5,2.6,11.4,7.1,15.2,11.8c-0.4,1.6-0.3,2.7-0.3,4.3c-1.3,1.8-5.1,6.1-7.4,5.8C392.7,187.2,389.5,184.7,385.1,181.5z"/>
	<path class="st3" d="M403.9,181.3c10.1,11.1,14.8,26.7,14,41.5c-1.2,24-16.7,45.3-33.9,60.9c-14.6,13.2-36.5,23.9-45.9,41.9
		l15,21.4c10.4,14.8,23,31.9,19.6,51c-2,11.2-8.9,21.3-18.2,27.7c-9.2,6.4-20.5,8.8-31.5,6.8c-23.6-4.5-38.5-26.6-33.7-50.1
		c1-4.8,2.7-9.5,5-13.9c5.5-10.5,13.8-21.2,20.5-30.9c8.7-12.7,17-26.3,28.1-37.1c7.3-7.1,16-12.6,24-18.7
		c18.2-14,35.8-32.7,38.2-56.7c1.1-11.3-0.7-21.1-7-30.7c-0.6-1-1.3-1.9-1.9-2.8c2.3,0.3,6.2-4,7.4-5.8
		C403.6,184.1,403.5,182.9,403.9,181.3z M332.6,420.6c9.5-1.3,16.4-4.2,22.3-12.1c16.2-21.7-4.1-41.5-15.5-59.4
		c-1.7-2.7-7.1-10.8-9.2-12.6c-4.3,6.9-9.8,14.5-14.5,21.4c-8.9,12.9-17.5,24-13.7,40.6c1.7,7.5,6.8,14,13.3,18
		C320.7,419.7,326.4,420.9,332.6,420.6z"/>
</g>
<g>
	<path class="st4" d="M522,131.6h12.6l56.6,146H579l-18.2-46.2h-65l-18,46.2h-12.4L522,131.6z M557.2,220.4l-29-73.8l-28.6,73.8
		H557.2z"/>
	<path class="st4" d="M613,167.8l10.4-0.2l0.4,20.2c3.3-6.5,8.2-11.6,14.6-15.2c6.4-3.6,13.7-5.4,22-5.4c0.3,0,0.5,0,0.8,0
		c1.7,0,3.9,0.1,6.6,0.4l-2.2,10.6c-1.9-0.3-3.3-0.4-4.4-0.4c-11.2,0-20.2,3.7-27.1,11.1c-6.9,7.4-10.3,18.6-10.3,33.5v55.2H613
		V167.8z"/>
	<path class="st4" d="M694.4,182.8c10.9-10.9,24.2-16.4,39.8-16.4c15.5,0,28.7,5.5,39.6,16.4c10.9,10.9,16.4,24.1,16.4,39.6
		c0,15.5-5.5,28.7-16.5,39.8c-11,11.1-24.2,16.6-39.5,16.6c-15.6,0-28.9-5.5-39.9-16.6c-11-11.1-16.5-24.3-16.5-39.8
		C677.8,206.9,683.3,193.7,694.4,182.8z M688.8,222.4c0,12.5,4.4,23.2,13.3,32.1c8.9,8.9,19.6,13.3,32.1,13.3
		c12.3,0,22.8-4.4,31.7-13.3c8.9-8.9,13.3-19.6,13.3-32.1c0-12.4-4.4-23-13.3-31.8c-8.9-8.8-19.4-13.2-31.7-13.2
		c-12.5,0-23.2,4.4-32.1,13.2C693.2,199.4,688.8,210,688.8,222.4z"/>
	<path class="st4" d="M816.4,167.6h10.4l0.4,21.2c2.7-7.1,6.9-12.6,12.8-16.5c5.9-3.9,12.1-5.9,18.8-5.9c9.5,0,17.2,2.6,23.3,7.7
		c6.1,5.1,10.1,11.6,12.1,19.5c2.1-7.9,6.2-14.4,12.2-19.5c6-5.1,13.4-7.7,22.2-7.7c12,0,21.6,4.2,28.9,12.7
		c7.3,8.5,10.9,21.6,10.9,39.3v59.2h-11v-59.2c0-14.4-2.7-24.9-8.2-31.4c-5.5-6.5-12.7-9.8-21.6-9.8c-8.5,0-15.6,3.3-21.3,9.9
		c-5.7,6.6-8.5,17-8.5,31.3v59.2h-11v-59.2c0-14.4-2.7-24.9-8.2-31.4c-5.5-6.5-12.7-9.8-21.6-9.8c-8.7,0-15.8,3.8-21.4,11.4
		s-8.4,18.7-8.4,33.2v55.8h-10.8V167.6z"/>
	<path class="st4" d="M1007.8,182.8c10.8-10.9,23.8-16.4,39-16.4c10.3,0,19.7,2.8,28.4,8.4c8.7,5.6,14.8,12.6,18.4,21l0.4-28.2h10.4
		v110H1094l-0.4-27.6c-3.6,8.3-9.7,15.1-18.4,20.6c-8.7,5.5-18.1,8.2-28.4,8.2c-15.2,0-28.2-5.5-39-16.4
		c-10.8-10.9-16.2-24.1-16.2-39.6C991.6,207.2,997,193.8,1007.8,182.8z M1002.6,222.8c0,12.4,4.5,23,13.4,31.9
		c8.9,8.9,19.6,13.3,32,13.3c12.5,0,23.2-4.4,32.1-13.3c8.9-8.9,13.3-19.5,13.3-31.9c0-12.5-4.4-23.3-13.3-32.2
		c-8.9-8.9-19.6-13.4-32.1-13.4c-12.4,0-23.1,4.5-32,13.4C1007,199.5,1002.6,210.2,1002.6,222.8z"/>
</g>
<g>
	<path class="st5" d="M664.3,283.3h45.6v11.6h-33v18.3h31v11.5h-31v19.4h34v12.2h-46.6V283.3z"/>
	<path class="st5" d="M717.4,301.3h14.2l14.2,18.4l14.1-18.4H774l-20.1,27.5l20.1,27.5h-14.1l-14.1-18.4l-14.2,18.4h-14.2l20.2-27.5
		L717.4,301.3z"/>
	<path class="st5" d="M782.6,378.3v-77h10.9l0.7,10.3c1.7-3.2,4.2-5.8,7.7-7.9c3.5-2.1,7.2-3.1,11.3-3.1c7.3,0,13.5,2.8,18.6,8.3
		c5.2,5.5,7.8,12.2,7.8,19.9c0,7.8-2.6,14.5-7.8,20c-5.2,5.5-11.4,8.3-18.6,8.3c-4,0-7.7-1-11.1-3c-3.4-2-5.9-4.6-7.6-7.8v32H782.6z
		 M799.4,340.5c3.2,3.3,7.1,4.9,11.7,4.9c4.5,0,8.4-1.6,11.7-4.8c3.2-3.2,4.8-7.2,4.8-11.8c0-4.5-1.6-8.4-4.8-11.7
		c-3.2-3.2-7.1-4.8-11.7-4.8c-4.6,0-8.5,1.6-11.8,4.8c-3.2,3.2-4.8,7.1-4.8,11.7C794.5,333.4,796.1,337.3,799.4,340.5z"/>
	<path class="st5" d="M849.6,301.3h10.9l0.8,8.4c3.4-5.8,8.9-8.7,16.4-8.7c0.1,0,0.3,0,0.5,0c1.7,0,3.2,0.1,4.6,0.3l-2.4,11.4
		c-0.5-0.1-1.1-0.1-1.9-0.1c-4.9,0-9,1.5-12.2,4.5c-3.2,3-4.8,8-4.8,15v24.2h-11.9V301.3z"/>
	<path class="st5" d="M893.3,308.9c5.5-5.5,12.1-8.3,19.8-8.3c7.9,0,14.5,2.8,19.9,8.2c5.4,5.5,8.1,12.2,8.1,20
		c0,0.2-0.1,1.9-0.3,5.1h-42.9c0.7,3.5,2.6,6.4,5.7,8.7c3.1,2.3,6.7,3.5,10.8,3.5c5.9,0,10.7-2,14.3-6l9.5,6
		c-2.6,3.4-6.1,6.1-10.4,8.1c-4.3,2-8.8,3-13.4,3c-8.3,0-15.3-2.8-20.9-8.2c-5.6-5.5-8.4-12.2-8.4-20
		C885.1,321.1,887.8,314.4,893.3,308.9z M897.9,324.3h30.9c-0.3-3.5-2-6.5-4.9-9c-2.9-2.4-6.5-3.7-10.8-3.7c-4.1,0-7.6,1.2-10.5,3.7
		C899.8,317.9,898.2,320.8,897.9,324.3z"/>
	<path class="st5" d="M954.7,340.1c1.8,1.9,4.2,3.4,7.4,4.5c3.1,1.1,6.2,1.7,9.3,1.7c3.1,0,5.6-0.5,7.5-1.5c1.8-1,2.8-2.5,2.8-4.5
		c0-1.7-1.1-3-3.4-4c-2.3-1-5-1.9-8.2-2.5c-3.2-0.7-6.5-1.6-9.8-2.7c-3.3-1.1-6-2.8-8.3-5.3c-2.3-2.5-3.4-5.7-3.4-9.6
		c0-4.7,1.9-8.6,5.8-11.5c3.9-2.9,9-4.4,15.3-4.4c9.8,0,17.3,3,22.4,9.1l-7.2,7.2c-1.6-1.9-3.8-3.3-6.6-4.2
		c-2.8-0.9-5.6-1.4-8.3-1.4c-2.9,0-5.2,0.5-6.9,1.4c-1.7,0.9-2.6,2.2-2.6,3.8c0,1.5,1.1,2.7,3.4,3.6c2.3,0.9,5,1.8,8.3,2.5
		c3.3,0.7,6.5,1.6,9.8,2.7c3.3,1.1,6,2.9,8.3,5.5c2.3,2.5,3.4,5.7,3.4,9.6c0,5.7-2.1,10.1-6.3,13c-4.2,3-9.5,4.5-15.9,4.5
		c-4.5,0-9-0.8-13.5-2.4s-8.2-4-11.2-7.2L954.7,340.1z"/>
	<path class="st5" d="M1007.8,340.1c1.8,1.9,4.2,3.4,7.4,4.5c3.1,1.1,6.2,1.7,9.3,1.7c3.1,0,5.6-0.5,7.5-1.5c1.8-1,2.8-2.5,2.8-4.5
		c0-1.7-1.1-3-3.4-4c-2.3-1-5-1.9-8.2-2.5c-3.2-0.7-6.5-1.6-9.8-2.7c-3.3-1.1-6-2.8-8.3-5.3c-2.3-2.5-3.4-5.7-3.4-9.6
		c0-4.7,1.9-8.6,5.8-11.5c3.9-2.9,9-4.4,15.3-4.4c9.8,0,17.3,3,22.4,9.1l-7.2,7.2c-1.6-1.9-3.8-3.3-6.6-4.2
		c-2.8-0.9-5.6-1.4-8.3-1.4c-2.9,0-5.2,0.5-6.9,1.4c-1.7,0.9-2.6,2.2-2.6,3.8c0,1.5,1.1,2.7,3.4,3.6c2.3,0.9,5,1.8,8.3,2.5
		c3.3,0.7,6.5,1.6,9.8,2.7c3.3,1.1,6,2.9,8.3,5.5c2.3,2.5,3.4,5.7,3.4,9.6c0,5.7-2.1,10.1-6.3,13c-4.2,3-9.5,4.5-15.9,4.5
		c-4.5,0-9-0.8-13.5-2.4s-8.2-4-11.2-7.2L1007.8,340.1z"/>
	<path class="st5" d="M1061.1,308.8c5.5-5.5,12.1-8.2,20-8.2c7.7,0,14.4,2.8,19.9,8.3c5.5,5.5,8.3,12.2,8.3,19.9
		c0,7.8-2.8,14.5-8.3,20c-5.5,5.5-12.2,8.3-19.9,8.3c-7.9,0-14.5-2.8-20-8.3c-5.5-5.5-8.2-12.2-8.2-20S1055.5,314.3,1061.1,308.8z
		 M1064.9,328.8c0,4.5,1.6,8.4,4.7,11.5c3.1,3.1,7,4.7,11.5,4.7c4.5,0,8.3-1.6,11.4-4.8c3.1-3.2,4.7-7,4.7-11.5
		c0-4.5-1.6-8.3-4.7-11.4c-3.1-3.1-6.9-4.7-11.4-4.7c-4.5,0-8.4,1.6-11.5,4.7C1066.4,320.5,1064.9,324.3,1064.9,328.8z"/>
</g>
<g>
</g>
<g>
</g>
<g>
</g>
<g>
</g>
<g>
</g>
<g>
</g>
</svg>
