<?xml version="1.0" encoding="utf-8" ?><svg xmlns="http://www.w3.org/2000/svg" xmlns:xlink="http://www.w3.org/1999/xlink" width="1024" height="1024" viewBox="0 0 1024 1024"><defs><linearGradient id="gradient_0" gradientUnits="userSpaceOnUse" x1="340.92947" y1="364.96426" x2="568.80035" y2="576.49402"><stop offset="0" stop-color="#A94AFF"/><stop offset="1" stop-color="#2CABFD"/></linearGradient></defs><path fill="url(#gradient_0)" d="M465.624 230.588C467.835 225.075 471.67 215.99 474.581 210.656C478.939 202.671 485.412 180.015 494.637 177.703C508.75 174.167 512.674 182.742 515.989 194.017L571.4 394.396C621.133 373.016 673.655 358.77 727.147 378.944C730.34 380.148 736.335 382.919 739.168 384.761C748.572 389.147 758.61 396.862 765.167 404.915C764.449 407.576 764.622 409.578 764.641 412.325C762.503 415.4 755.919 422.702 751.967 422.165C746.027 414.955 740.557 410.663 733.097 405.265C698.432 385.836 657.076 387.979 619.911 398.461C605.482 402.52 591.483 407.974 578.112 414.748L604.603 507.44L611.969 532.481C612.616 534.673 615.185 543.179 615.327 544.971C622.289 564.301 626.658 585.917 633.154 605.535C633.937 607.9 635.011 611.909 635.299 614.248C636.254 622.004 625.222 626.579 619.19 622.969C615.222 620.595 614.906 616.607 613.41 612.628C607.907 593.846 602.437 575.013 596.902 556.237C596.803 555.715 596.705 555.194 596.607 554.672C595.192 551.014 593.422 544.42 592.256 540.487L583.593 510.652L558.46 425.467C491.178 465.446 446.691 506.211 393.523 562.614C375.511 581.937 357.745 601.488 340.229 621.261C328.621 634.203 316.908 647.723 303.967 659.183C295.411 666.759 280.411 662.511 277.69 651.203C276.304 645.448 277.057 641.635 279.309 636.325C282.698 628.334 286.514 620.602 290.109 612.736C297.26 596.848 304.55 581.023 311.978 565.261L366.217 447.838L431.516 305.533L452.75 258.552C456.695 249.779 461.236 239.035 465.624 230.588ZM306.206 628.18L332.842 598.455C394.404 527.419 469.143 449.777 552.354 404.607C544.338 379.255 536.917 353.719 530.099 328.019L508.335 249.957C506.964 245.094 499.384 215.327 497.76 212.889L374.311 482.179L331.959 573.178C323.63 591.055 314.852 610.589 306.206 628.18Z"/><path fill="#26B8FA" d="M596.607 554.672C596.717 550.256 594.519 548.08 594.695 544.35C595.815 545.905 595.53 546.112 596.92 546.381C599.011 545.046 605.971 536.937 606.427 534.332C606.861 531.855 608.364 529.254 609.159 526.981C610.145 528.281 613.237 541.197 614.46 544.592L615.327 544.971C622.289 564.301 626.658 585.917 633.154 605.535C633.937 607.9 635.011 611.909 635.299 614.248C636.254 622.004 625.222 626.579 619.19 622.969C615.222 620.595 614.906 616.607 613.41 612.628C607.907 593.846 602.437 575.013 596.902 556.237C596.803 555.715 596.705 555.194 596.607 554.672Z"/><path fill="#AC4DFE" d="M465.624 230.588C467.835 225.075 471.67 215.99 474.581 210.656C478.939 202.671 485.412 180.015 494.637 177.703C508.75 174.167 512.674 182.742 515.989 194.017L515.012 195.423C513.932 195.263 513.932 195.276 512.939 194.833C510.969 196.491 510.513 201.781 507.253 203.303C505.919 203.118 505.435 202.332 504.479 201.325L503.764 201.541C503.397 203.035 503.48 203.488 503.492 205.014C500.859 209.679 493.068 207.156 493.043 213.168C483.612 222.545 482.651 223.683 470.939 229.861C470.602 228.689 470.708 228.12 470.741 226.898L470.072 226.877C468.853 228.026 468.841 228.355 468.162 229.872C466.951 230.504 466.949 230.657 465.624 230.588Z"/><path fill="#26B8FA" d="M733.097 405.265C731.935 402.775 726.801 401.047 723.938 399.39L724.278 398.627C736.598 394.453 732.701 386.855 736.149 384.367C736.967 384.511 737.518 384.589 738.359 384.679L739.168 384.761C748.572 389.147 758.61 396.862 765.167 404.915C764.449 407.576 764.622 409.578 764.641 412.325C762.503 415.4 755.919 422.702 751.967 422.165C746.027 414.955 740.557 410.663 733.097 405.265Z"/><path fill="#00E1DF" d="M765.167 404.915C782.414 423.794 790.374 450.425 789.102 475.779C787.047 516.73 760.643 553.053 731.287 579.736C706.425 602.334 669.028 620.507 652.926 651.273L678.511 687.743C696.206 712.949 717.736 742.141 711.974 774.748C708.604 793.821 696.727 811.065 680.933 822.054C665.293 832.996 645.898 837.16 627.145 833.601C586.897 825.981 561.486 788.212 569.601 747.999C571.34 739.723 574.188 731.719 578.066 724.203C587.395 706.333 601.661 688.036 613.097 671.369C628.007 649.636 642.163 626.409 661.154 607.985C673.564 595.945 688.389 586.549 702.068 576.046C733.15 552.18 763.254 520.134 767.239 479.304C769.127 459.969 765.987 443.301 755.296 426.97C754.232 425.337 753.122 423.735 751.967 422.165C755.919 422.702 762.503 415.4 764.641 412.325C764.622 409.578 764.449 407.576 765.167 404.915ZM643.49 813.504C659.694 811.238 671.47 806.394 681.625 792.766C709.261 755.681 674.586 721.944 655.167 691.331C652.264 686.755 642.966 672.893 639.414 669.836C632.068 681.59 622.62 694.665 614.611 706.306C599.489 728.283 584.723 747.216 591.179 775.633C594.088 788.435 602.839 799.477 613.912 806.343C623.066 812.019 632.837 813.935 643.49 813.504Z"/></svg>